<svg width="63" height="28" viewBox="0 0 63 28" fill="none" xmlns="http://www.w3.org/2000/svg">
<path d="M13.2485 21.4999H0.564453V1.47992H5.10045V17.9439H13.2485V21.4999Z" fill="black"/>
<path fill-rule="evenodd" clip-rule="evenodd" d="M29.2869 14.2479C29.2869 18.8679 25.9549 21.8079 21.5589 21.8079C17.1909 21.8079 13.8589 18.8959 13.8589 14.3319V14.1079C13.8589 9.51596 17.1909 6.51996 21.5869 6.51996C25.9829 6.51996 29.2869 9.45996 29.2869 14.0239V14.2479ZM18.0029 14.2479C18.0029 17.0479 19.2909 18.7279 21.5869 18.7279C23.8549 18.7279 25.1709 17.0479 25.1709 14.2759V14.0799C25.1709 11.2799 23.8549 9.59996 21.5869 9.59996C19.3469 9.59996 18.0029 11.2239 18.0029 14.0239V14.2479Z" fill="black"/>
<path fill-rule="evenodd" clip-rule="evenodd" d="M37.665 26.9039C42.4809 26.9039 45.3649 24.6919 45.3929 20.3519V6.85596H41.361V9.03996C40.521 7.55596 39.0929 6.51996 36.7129 6.51996C33.0729 6.51996 30.2729 9.45996 30.2729 13.6599V13.8559C30.2729 18.1959 33.1009 20.8559 36.6569 20.8559C38.813 20.8559 40.549 19.5679 41.361 18.1399V20.3519C41.361 22.6479 40.129 23.9359 37.665 23.9359C35.593 23.9359 34.6689 23.0959 34.417 21.8079H30.3849C30.7769 24.8319 32.933 26.9039 37.665 26.9039ZM37.861 17.8039C35.845 17.8039 34.417 16.2919 34.417 13.8559V13.6319C34.417 11.2239 35.6769 9.59996 37.945 9.59996C40.157 9.59996 41.4729 11.1119 41.4729 13.6039V13.7999C41.4729 16.2919 39.989 17.8039 37.861 17.8039Z" fill="black"/>
<path fill-rule="evenodd" clip-rule="evenodd" d="M62.6616 14.2479C62.6616 18.8679 59.3296 21.8079 54.9336 21.8079C50.5656 21.8079 47.2336 18.8959 47.2336 14.3319V14.1079C47.2336 9.51596 50.5656 6.51996 54.9616 6.51996C59.3576 6.51996 62.6616 9.45996 62.6616 14.0239V14.2479ZM51.3776 14.2479C51.3776 17.0479 52.6656 18.7279 54.9616 18.7279C57.2296 18.7279 58.5456 17.0479 58.5456 14.2759V14.0799C58.5456 11.2799 57.2296 9.59996 54.9616 9.59996C52.7216 9.59996 51.3776 11.2239 51.3776 14.0239V14.2479Z" fill="black"/>
</svg>
