<svg width="692" height="202" viewBox="0 0 692 202" fill="none" xmlns="http://www.w3.org/2000/svg">
<g clip-path="url(#clip0_183_2359)">
<path d="M167.273 0.168396V155.822L186.147 155.899V81.8103H231.747V62.201H186.147V19.7777H245.507V0.168396H167.273ZM279.581 31.757C286.424 31.757 291.899 25.8818 291.899 18.7095C291.899 11.5372 286.352 5.66206 279.581 5.66206C272.737 5.66206 267.262 11.5372 267.262 18.7095C267.262 25.8818 272.809 31.757 279.581 31.757ZM270 51.3663V155.822H288.874V51.3663H270Z" fill="black"/>
<path fill-rule="evenodd" clip-rule="evenodd" d="M358.967 48.3142C333.826 48.3142 316.32 70.823 316.32 97.5283C316.32 124.234 333.826 146.742 358.967 146.742C370.493 146.742 379.93 142.012 386.846 134.382V148.192C386.846 165.512 374.023 179.933 357.238 179.933C351.187 179.933 345.208 177.492 340.453 173.982L330.944 191.378C338.508 196.567 347.513 199.543 357.166 199.543C383.964 199.543 405.648 176.576 405.648 148.192V51.3663H386.846V60.675C379.93 53.0449 370.493 48.3142 358.967 48.3142ZM335.266 97.5283C335.266 80.971 347.225 67.9236 361.056 67.9236C374.887 67.9236 386.846 80.971 386.846 97.5283C386.846 114.086 374.887 127.133 361.056 127.133C347.225 127.133 335.266 114.086 335.266 97.5283Z" fill="black"/>
<path d="M473.868 67.9236C462.702 67.9236 453.625 77.9953 453.625 89.8219V155.822H434.751V51.3663H453.625V60.9039C459.172 53.3501 467.312 48.3142 477.974 48.3142C491.229 48.3142 501.386 55.2576 507.294 65.9397C513.849 55.6391 524.511 48.3142 537.406 48.3142C558.945 48.3142 572.344 66.7028 572.416 89.4404V155.822H553.542V89.7456C553.542 77.919 544.465 67.8473 533.299 67.8473C522.133 67.8473 513.057 77.919 513.057 89.7456V155.822H494.183V89.7456C494.111 77.919 485.034 67.9236 473.868 67.9236Z" fill="black"/>
<path fill-rule="evenodd" clip-rule="evenodd" d="M673.126 63.1929C664.697 53.9605 653.171 48.3142 639.844 48.3142C611.749 48.3142 591.723 73.5698 591.723 103.632C591.723 133.695 611.677 158.951 639.844 158.951C653.171 158.951 664.697 153.228 673.126 144.072V155.822H692V51.3663H673.126V63.1929ZM610.669 103.632C610.669 83.7179 625.076 67.9236 641.933 67.9236C658.718 67.9236 673.198 83.6416 673.198 103.632C673.198 123.547 658.79 139.341 641.933 139.341C625.076 139.265 610.669 123.547 610.669 103.632Z" fill="black"/>
<path d="M63.4658 101.038C63.4658 82.497 77.6574 67.3895 95.2347 67.3895C112.74 67.3895 127.004 82.4207 127.004 101.038C127.004 119.579 112.812 134.687 95.2347 134.687C77.7294 134.687 63.4658 119.579 63.4658 101.038Z" fill="#1ABCFE"/>
<path d="M0 168.259C0 149.718 14.1915 134.611 31.7689 134.611H63.5378V168.259C63.5378 186.8 49.3462 201.908 31.7689 201.908C14.1915 201.908 0 186.877 0 168.259Z" fill="#0ACF83"/>
<path d="M63.4658 0.168372V67.3894H95.2347C112.74 67.3894 127.004 52.3582 127.004 33.7408C127.004 15.1996 112.812 0.0920715 95.2347 0.0920715H63.4658V0.168372Z" fill="#FF7262"/>
<path d="M0 33.8171C0 52.3582 14.1915 67.4658 31.7689 67.4658H63.5378V0.168396H31.7689C14.1915 0.168396 0 15.1997 0 33.8171Z" fill="#F24E1E"/>
<path d="M0 101.038C0 119.579 14.1915 134.687 31.7689 134.687H63.5378V67.3895H31.7689C14.1915 67.3895 0 82.497 0 101.038Z" fill="#A259FF"/>
</g>
<defs>
<clipPath id="clip0_183_2359">
<rect width="692" height="202" fill="white"/>
</clipPath>
</defs>
</svg>
