<svg width="25" height="24" viewBox="0 0 25 24" fill="none" xmlns="http://www.w3.org/2000/svg">
<path d="M22.2593 7.20301C22.1454 6.78041 21.9228 6.39501 21.6137 6.08518C21.3046 5.77534 20.9197 5.55187 20.4973 5.43701C18.9313 5.00701 12.6663 5.00001 12.6663 5.00001C12.6663 5.00001 6.40235 4.99301 4.83535 5.40401C4.41327 5.52415 4.02917 5.75078 3.71991 6.06214C3.41066 6.3735 3.18663 6.75913 3.06935 7.18201C2.65635 8.74801 2.65235 11.996 2.65235 11.996C2.65235 11.996 2.64835 15.26 3.05835 16.81C3.28835 17.667 3.96335 18.344 4.82135 18.575C6.40335 19.005 12.6513 19.012 12.6513 19.012C12.6513 19.012 18.9163 19.019 20.4823 18.609C20.9048 18.4943 21.2901 18.2714 21.6 17.9622C21.9099 17.653 22.1337 17.2682 22.2493 16.846C22.6633 15.281 22.6663 12.034 22.6663 12.034C22.6663 12.034 22.6863 8.76901 22.2593 7.20301ZM10.6623 15.005L10.6673 9.00501L15.8743 12.01L10.6623 15.005Z" fill="black"/>
</svg>
