<svg width="24" height="25" viewBox="0 0 24 25" fill="none" xmlns="http://www.w3.org/2000/svg">
<path d="M21 12.29C21 16.44 18.79 21.5 12.13 21.5C7.12461 21.5332 3.03852 17.5053 3 12.5C3.03852 7.49461 7.12461 3.4667 12.13 3.49996C14.2007 3.50764 16.2085 4.21213 17.83 5.49996C17.942 5.59149 18.0109 5.72557 18.02 5.86996C18.0206 6.01605 17.963 6.15637 17.86 6.25996C17.209 6.85516 16.5882 7.48261 16 8.13996C15.8289 8.32826 15.5422 8.35432 15.34 8.19996C14.4161 7.51624 13.2888 7.16394 12.14 7.19996C9.18528 7.19996 6.79 9.59524 6.79 12.55C6.79 15.5047 9.18528 17.9 12.14 17.9C15.14 17.9 16.41 16.62 17.07 14.35H12.5C12.2239 14.35 12 14.1261 12 13.85V11.2C12 10.9238 12.2239 10.7 12.5 10.7H20.5C20.7302 10.6985 20.9244 10.8711 20.95 11.1C20.9871 11.4955 21.0038 11.8927 21 12.29Z" fill="black"/>
</svg>
