<svg width="24" height="24" viewBox="0 0 24 24" fill="none" xmlns="http://www.w3.org/2000/svg">
<path d="M12 2C6.486 2 2 6.486 2 12C2 17.514 6.486 22 12 22C17.514 22 22 17.514 22 12C22 6.486 17.514 2 12 2ZM19.931 11H13V4.069C14.7598 4.29335 16.3953 5.09574 17.6498 6.3502C18.9043 7.60466 19.7066 9.24017 19.931 11ZM4 12C4 7.928 7.061 4.564 11 4.069V12C11.003 12.1526 11.0409 12.3024 11.111 12.438C11.126 12.468 11.133 12.501 11.152 12.531L15.354 19.254C14.3038 19.7442 13.159 19.9988 12 20C7.589 20 4 16.411 4 12ZM17.052 18.196L13.805 13H19.931C19.6746 15.0376 18.6436 16.8982 17.052 18.196Z" fill="black"/>
</svg>
