<svg width="25" height="24" viewBox="0 0 25 24" fill="none" xmlns="http://www.w3.org/2000/svg">
<path fill-rule="evenodd" clip-rule="evenodd" d="M16.6665 3.24268H8.6665C5.90508 3.24268 3.6665 5.48126 3.6665 8.24268V16.2427C3.6665 19.0041 5.90508 21.2427 8.6665 21.2427H16.6665C19.4279 21.2427 21.6665 19.0041 21.6665 16.2427V8.24268C21.6665 5.48126 19.4279 3.24268 16.6665 3.24268ZM19.9165 16.2427C19.911 18.0353 18.4591 19.4872 16.6665 19.4927H8.6665C6.87385 19.4872 5.42199 18.0353 5.4165 16.2427V8.24268C5.42199 6.45003 6.87385 4.99817 8.6665 4.99268H16.6665C18.4591 4.99817 19.911 6.45003 19.9165 8.24268V16.2427ZM17.4165 8.49268C17.9688 8.49268 18.4165 8.04496 18.4165 7.49268C18.4165 6.9404 17.9688 6.49268 17.4165 6.49268C16.8642 6.49268 16.4165 6.9404 16.4165 7.49268C16.4165 8.04496 16.8642 8.49268 17.4165 8.49268ZM12.6665 7.74268C10.1812 7.74268 8.1665 9.7574 8.1665 12.2427C8.1665 14.728 10.1812 16.7427 12.6665 16.7427C15.1518 16.7427 17.1665 14.728 17.1665 12.2427C17.1692 11.0484 16.6959 9.90225 15.8514 9.05776C15.0069 8.21327 13.8608 7.74002 12.6665 7.74268ZM9.9165 12.2427C9.9165 13.7615 11.1477 14.9927 12.6665 14.9927C14.1853 14.9927 15.4165 13.7615 15.4165 12.2427C15.4165 10.7239 14.1853 9.49268 12.6665 9.49268C11.1477 9.49268 9.9165 10.7239 9.9165 12.2427Z" fill="black"/>
</svg>
