<svg width="24" height="24" viewBox="0 0 24 24" fill="none" xmlns="http://www.w3.org/2000/svg">
<path d="M19.903 8.586C19.8556 8.47747 19.7892 8.37825 19.707 8.293L13.707 2.293C13.6218 2.21078 13.5225 2.14441 13.414 2.097C13.384 2.083 13.352 2.075 13.32 2.064C13.2363 2.03553 13.1492 2.01837 13.061 2.013C13.04 2.011 13.021 2 13 2H6C4.897 2 4 2.897 4 4V20C4 21.103 4.897 22 6 22H18C19.103 22 20 21.103 20 20V9C20 8.979 19.989 8.96 19.987 8.938C19.9821 8.84972 19.9649 8.76255 19.936 8.679C19.926 8.647 19.917 8.616 19.903 8.586ZM16.586 8H14V5.414L16.586 8ZM6 20V4H12V9C12 9.26522 12.1054 9.51957 12.2929 9.70711C12.4804 9.89464 12.7348 10 13 10H18L18.002 20H6Z" fill="black"/>
<path d="M8 12H16V14H8V12ZM8 16H16V18H8V16ZM8 8H10V10H8V8Z" fill="black"/>
</svg>
