<svg width="49" height="48" viewBox="0 0 49 48" fill="none" xmlns="http://www.w3.org/2000/svg">
<path fill-rule="evenodd" clip-rule="evenodd" d="M42.1265 14.24L41.8465 13.74C41.4853 13.1354 40.9759 12.6329 40.3665 12.28L26.9465 4.54C26.3389 4.1875 25.6491 4.00124 24.9465 4H24.3665C23.6639 4.00124 22.9741 4.1875 22.3665 4.54L8.9465 12.3C8.34044 12.6505 7.83702 13.1539 7.4865 13.76L7.2065 14.26C6.854 14.8677 6.66774 15.5575 6.6665 16.26V31.76C6.66774 32.4626 6.854 33.1524 7.2065 33.76L7.4865 34.26C7.84608 34.859 8.34748 35.3604 8.9465 35.72L22.3865 43.46C22.9911 43.8198 23.6829 44.0066 24.3865 44H24.9465C25.6491 43.9988 26.3389 43.8126 26.9465 43.46L40.3665 35.7C40.9785 35.3574 41.4839 34.852 41.8265 34.24L42.1265 33.74C42.4747 33.1306 42.6607 32.442 42.6665 31.74V16.24C42.6653 15.5375 42.4791 14.8477 42.1265 14.24ZM24.3665 8H24.9465L36.6665 14.76L24.6665 21.68L12.6665 14.76L24.3665 8ZM26.6665 39L38.3665 32.24L38.6665 31.74V18.22L26.6665 25.16V39Z" fill="black"/>
</svg>
