<svg width="25" height="24" viewBox="0 0 25 24" fill="none" xmlns="http://www.w3.org/2000/svg">
<path fill-rule="evenodd" clip-rule="evenodd" d="M5.1665 3.24268C4.33807 3.24268 3.6665 3.91425 3.6665 4.74268V19.7427C3.6665 20.5711 4.33807 21.2427 5.1665 21.2427H20.1665C20.9949 21.2427 21.6665 20.5711 21.6665 19.7427V4.74268C21.6665 3.91425 20.9949 3.24268 20.1665 3.24268H5.1665ZM9.18726 7.2454C9.19289 8.20165 8.47711 8.79087 7.62773 8.78665C6.82757 8.78243 6.13007 8.1454 6.13429 7.24681C6.13851 6.40165 6.80648 5.72243 7.67414 5.74212C8.55445 5.76181 9.19289 6.40728 9.18726 7.2454ZM12.9462 10.0044H10.4262H10.4248V18.5643H13.0882V18.3646C13.0882 17.9847 13.0879 17.6047 13.0876 17.2246C13.0868 16.2108 13.0859 15.1959 13.0911 14.1824C13.0925 13.9363 13.1037 13.6804 13.167 13.4455C13.4046 12.568 14.1936 12.0013 15.0739 12.1406C15.6392 12.2291 16.0132 12.5568 16.1707 13.0898C16.2678 13.423 16.3114 13.7816 16.3156 14.129C16.327 15.1766 16.3254 16.2242 16.3238 17.2719C16.3232 17.6417 16.3226 18.0117 16.3226 18.3815V18.5629H18.9945V18.3576C18.9945 17.9056 18.9943 17.4537 18.994 17.0018C18.9935 15.8723 18.9929 14.7428 18.9959 13.6129C18.9973 13.1024 18.9425 12.599 18.8173 12.1054C18.6303 11.3713 18.2436 10.7638 17.615 10.3251C17.1692 10.0129 16.6798 9.81178 16.1328 9.78928C16.0705 9.78669 16.0077 9.7833 15.9446 9.77989C15.6649 9.76477 15.3806 9.74941 15.1132 9.80334C14.3482 9.95662 13.6761 10.3068 13.1684 10.9241C13.1094 10.9949 13.0517 11.0668 12.9656 11.1741L12.9462 11.1984V10.0044ZM6.34814 18.5671H8.99892V10.01H6.34814V18.5671Z" fill="black"/>
</svg>
