<svg width="25" height="24" viewBox="0 0 25 24" fill="none" xmlns="http://www.w3.org/2000/svg">
<path fill-rule="evenodd" clip-rule="evenodd" d="M12.6665 3C7.69795 3 3.6665 7.03145 3.6665 12C3.6665 16.9686 7.69795 21 12.6665 21C17.6253 21 21.6665 16.9686 21.6665 12C21.6665 7.03145 17.6253 3 12.6665 3ZM18.6112 7.14859C19.6849 8.45662 20.3292 10.1258 20.3487 11.9317C20.0949 11.8829 17.5569 11.3655 14.9995 11.6876C14.9409 11.5607 14.8921 11.4241 14.8335 11.2874C14.6773 10.9165 14.5017 10.5358 14.3259 10.1746C17.1567 9.0228 18.4452 7.36334 18.6112 7.14859ZM12.6665 4.32755C14.6188 4.32755 16.4051 5.05966 17.762 6.26031C17.6253 6.45553 16.4637 8.00759 13.7305 9.03253C12.4713 6.71909 11.0754 4.82538 10.8607 4.53254C11.4365 4.39588 12.0418 4.32755 12.6665 4.32755ZM9.39646 5.04989C9.60144 5.32321 10.968 7.22668 12.2468 9.49131C8.65457 10.448 5.48212 10.4284 5.14047 10.4284C5.6383 8.04664 7.24893 6.06507 9.39646 5.04989ZM4.97453 12.0098C4.97453 11.9317 4.97453 11.8536 4.97453 11.7755C5.30641 11.7852 9.03526 11.8341 12.8715 10.6822C13.096 11.1117 13.301 11.551 13.4962 11.9902C13.3986 12.0195 13.2912 12.0488 13.1936 12.0781C9.23049 13.3568 7.12203 16.8514 6.94633 17.1442C5.72615 15.7874 4.97453 13.9816 4.97453 12.0098ZM12.6665 19.692C10.8899 19.692 9.25002 19.0868 7.95175 18.0716C8.08841 17.7885 9.65021 14.782 13.9843 13.269C14.0038 13.2592 14.0136 13.2592 14.0331 13.2495C15.1166 16.051 15.5559 18.4034 15.673 19.077C14.7457 19.4772 13.7305 19.692 12.6665 19.692ZM16.9517 18.3742C16.8737 17.9056 16.4637 15.6605 15.4582 12.898C17.8693 12.5173 19.9778 13.1421 20.2414 13.23C19.9095 15.3677 18.6795 17.2126 16.9517 18.3742Z" fill="black"/>
</svg>
