<svg width="24" height="25" viewBox="0 0 24 25" fill="none" xmlns="http://www.w3.org/2000/svg">
<path fill-rule="evenodd" clip-rule="evenodd" d="M16 3.74268H8C5.23858 3.74268 3 5.98126 3 8.74268V16.7427C3 19.5041 5.23858 21.7427 8 21.7427H16C18.7614 21.7427 21 19.5041 21 16.7427V8.74268C21 5.98126 18.7614 3.74268 16 3.74268ZM19.25 16.7427C19.2445 18.5353 17.7926 19.9872 16 19.9927H8C6.20735 19.9872 4.75549 18.5353 4.75 16.7427V8.74268C4.75549 6.95003 6.20735 5.49817 8 5.49268H16C17.7926 5.49817 19.2445 6.95003 19.25 8.74268V16.7427ZM16.75 8.99268C17.3023 8.99268 17.75 8.54496 17.75 7.99268C17.75 7.4404 17.3023 6.99268 16.75 6.99268C16.1977 6.99268 15.75 7.4404 15.75 7.99268C15.75 8.54496 16.1977 8.99268 16.75 8.99268ZM12 8.24268C9.51472 8.24268 7.5 10.2574 7.5 12.7427C7.5 15.228 9.51472 17.2427 12 17.2427C14.4853 17.2427 16.5 15.228 16.5 12.7427C16.5027 11.5484 16.0294 10.4022 15.1849 9.55776C14.3404 8.71327 13.1943 8.24002 12 8.24268ZM9.25 12.7427C9.25 14.2615 10.4812 15.4927 12 15.4927C13.5188 15.4927 14.75 14.2615 14.75 12.7427C14.75 11.2239 13.5188 9.99268 12 9.99268C10.4812 9.99268 9.25 11.2239 9.25 12.7427Z" fill="black"/>
</svg>
