<svg width="25" height="24" viewBox="0 0 25 24" fill="none" xmlns="http://www.w3.org/2000/svg">
<path fill-rule="evenodd" clip-rule="evenodd" d="M12.6667 3C7.6982 3 3.66675 7.03145 3.66675 12C3.66675 16.9686 7.6982 21 12.6667 21C17.6255 21 21.6667 16.9686 21.6667 12C21.6667 7.03145 17.6255 3 12.6667 3ZM18.6114 7.14859C19.6851 8.45662 20.3294 10.1258 20.3489 11.9317C20.0951 11.8829 17.5571 11.3655 14.9997 11.6876C14.9411 11.5607 14.8923 11.4241 14.8337 11.2874C14.6775 10.9165 14.5019 10.5358 14.3261 10.1746C17.1569 9.0228 18.4454 7.36334 18.6114 7.14859ZM12.6667 4.32755C14.619 4.32755 16.4053 5.05966 17.7622 6.26031C17.6255 6.45553 16.4639 8.00759 13.7307 9.03253C12.4715 6.71909 11.0756 4.82538 10.8609 4.53254C11.4367 4.39588 12.042 4.32755 12.6667 4.32755ZM9.39671 5.04989C9.60169 5.32321 10.9682 7.22668 12.247 9.49131C8.65482 10.448 5.48237 10.4284 5.14072 10.4284C5.63855 8.04664 7.24918 6.06507 9.39671 5.04989ZM4.97478 12.0098C4.97478 11.9317 4.97478 11.8536 4.97478 11.7755C5.30666 11.7852 9.03551 11.8341 12.8717 10.6822C13.0962 11.1117 13.3012 11.551 13.4964 11.9902C13.3988 12.0195 13.2914 12.0488 13.1938 12.0781C9.23074 13.3568 7.12228 16.8514 6.94658 17.1442C5.7264 15.7874 4.97478 13.9816 4.97478 12.0098ZM12.6667 19.692C10.8901 19.692 9.25027 19.0868 7.952 18.0716C8.08866 17.7885 9.65046 14.782 13.9845 13.269C14.004 13.2592 14.0138 13.2592 14.0333 13.2495C15.1168 16.051 15.5561 18.4034 15.6732 19.077C14.7459 19.4772 13.7307 19.692 12.6667 19.692ZM16.9519 18.3742C16.8739 17.9056 16.4639 15.6605 15.4584 12.898C17.8695 12.5173 19.978 13.1421 20.2416 13.23C19.9097 15.3677 18.6797 17.2126 16.9519 18.3742Z" fill="black"/>
</svg>
