<svg width="24" height="25" viewBox="0 0 24 25" fill="none" xmlns="http://www.w3.org/2000/svg">
<path d="M21.593 7.70301C21.4791 7.28041 21.2565 6.89501 20.9474 6.58518C20.6383 6.27534 20.2534 6.05187 19.831 5.93701C18.265 5.50701 12 5.50001 12 5.50001C12 5.50001 5.73602 5.49301 4.16902 5.90401C3.74695 6.02415 3.36285 6.25078 3.05359 6.56214C2.74433 6.8735 2.52031 7.25913 2.40302 7.68201C1.99002 9.24801 1.98602 12.496 1.98602 12.496C1.98602 12.496 1.98202 15.76 2.39202 17.31C2.62202 18.167 3.29702 18.844 4.15502 19.075C5.73702 19.505 11.985 19.512 11.985 19.512C11.985 19.512 18.25 19.519 19.816 19.109C20.2385 18.9943 20.6238 18.7714 20.9337 18.4622C21.2436 18.153 21.4674 17.7682 21.583 17.346C21.997 15.781 22 12.534 22 12.534C22 12.534 22.02 9.26901 21.593 7.70301ZM9.99603 15.505L10.001 9.50501L15.208 12.51L9.99603 15.505Z" fill="black"/>
</svg>
