<svg width="140" height="56" viewBox="0 0 140 56" fill="none" xmlns="http://www.w3.org/2000/svg">
<path fill-rule="evenodd" clip-rule="evenodd" d="M35.5504 19.2355L35.8015 19.684C36.1177 20.2289 36.2848 20.8476 36.2858 21.4776V35.3791C36.2807 36.0086 36.1139 36.6262 35.8015 37.1728L35.5325 37.6213C35.2252 38.1703 34.772 38.6234 34.2231 38.9307L22.1871 45.8903C21.6421 46.2065 21.0234 46.3735 20.3934 46.3747H19.8911C19.2602 46.3806 18.6397 46.213 18.0974 45.8903L6.04351 38.9487C5.50627 38.6261 5.05658 38.1765 4.73409 37.6392L4.48297 37.1908C4.16681 36.6457 3.99978 36.0271 3.99866 35.397V21.4955C3.99978 20.8656 4.16681 20.2468 4.48297 19.7019L4.73409 19.2535C5.04845 18.7099 5.49997 18.2583 6.04351 17.944L18.0794 10.9843C18.6245 10.6682 19.2431 10.5011 19.8732 10.5H20.3934C21.0234 10.5011 21.6421 10.6682 22.1871 10.9843L34.2231 17.9261C34.7697 18.2425 35.2266 18.6932 35.5504 19.2355ZM20.3934 14.0874H19.8732L9.37988 20.1502L20.1422 26.3565L30.9047 20.1502L20.3934 14.0874ZM32.4293 35.8276L21.936 41.8905V29.4778L32.6983 23.2536V35.3792L32.4293 35.8276ZM83.0619 37.0475H79.3424V17.4169H83.0619V37.0475ZM49.4987 37.4683H53.6572V30.3392H55.4653L59.8822 37.4683H64.3249L59.4432 29.6161C61.6129 28.9703 63.2401 27.498 63.2401 24.7084V24.605C63.2401 20.7823 60.4764 19 56.1111 19H49.4987V37.4683ZM53.6572 27.498V22.2029H56.0078C58.0225 22.2029 59.159 22.8487 59.159 24.7342V24.8375C59.159 26.6198 58.1 27.498 56.0078 27.498H53.6572ZM71.0792 37.3309C74.7729 37.3309 77.0975 35.7037 77.5366 32.7849H73.998C73.7655 33.9214 72.9131 34.6705 71.1826 34.6705C69.142 34.6705 67.928 33.379 67.8247 31.1318H77.5625V30.0986C77.5625 25.2684 74.4629 23.2279 70.9759 23.2279C67.0498 23.2279 64.0276 25.9917 64.0276 30.2536V30.4602C64.0276 34.7738 66.9981 37.3309 71.0792 37.3309ZM67.8763 28.833C68.1604 26.9215 69.297 25.8109 70.9759 25.8109C72.7582 25.8109 73.7914 26.7924 73.9205 28.833H67.8763ZM90.1971 37.332C92.4187 37.332 93.7872 36.2988 94.4846 34.9299V37.0479H98.2042V23.5389H94.4846V31.4687C94.4846 33.4576 93.2447 34.4391 91.6697 34.4391C90.0685 34.4391 89.3186 33.5609 89.3186 31.727V23.5389H85.5995V32.2436C85.5995 35.7822 87.5625 37.332 90.1971 37.332ZM104.489 37.0468H100.743V23.5378H104.489V25.6042C105.16 24.3385 106.607 23.2279 108.622 23.2279C110.404 23.2279 111.747 23.977 112.393 25.5784C113.478 23.9511 115.234 23.2279 116.939 23.2279C119.445 23.2279 121.382 24.8035 121.382 28.3939V37.0468H117.662V28.8071C117.662 27.0765 116.887 26.3016 115.544 26.3016C114.098 26.3016 112.936 27.2315 112.936 29.0654V37.0468H109.216V28.8071C109.216 27.0765 108.415 26.3016 107.098 26.3016C105.651 26.3016 104.489 27.2315 104.489 29.0654V37.0468ZM130.03 37.3309C133.724 37.3309 136.049 35.7037 136.488 32.7849H132.949C132.716 33.9214 131.864 34.6705 130.133 34.6705C128.093 34.6705 126.879 33.379 126.776 31.1318H136.514V30.0986C136.514 25.2684 133.414 23.2279 129.927 23.2279C126.001 23.2279 122.979 25.9917 122.979 30.2536V30.4602C122.979 34.7738 125.949 37.3309 130.03 37.3309ZM126.828 28.833C127.112 26.9215 128.249 25.8109 129.927 25.8109C131.709 25.8109 132.743 26.7924 132.872 28.833H126.828Z" fill="black"/>
</svg>
