<svg width="140" height="56" viewBox="0 0 140 56" fill="none" xmlns="http://www.w3.org/2000/svg">
<path fill-rule="evenodd" clip-rule="evenodd" d="M35.5532 19.2355L35.8043 19.684C36.1205 20.2289 36.2876 20.8476 36.2886 21.4776V35.3791C36.2835 36.0086 36.1167 36.6262 35.8043 37.1728L35.5353 37.6213C35.228 38.1703 34.7748 38.6234 34.2259 38.9307L22.1899 45.8903C21.6449 46.2065 21.0263 46.3735 20.3962 46.3747H19.8939C19.263 46.3806 18.6425 46.213 18.1002 45.8903L6.04632 38.9487C5.50907 38.6261 5.05939 38.1765 4.7369 37.6392L4.48578 37.1908C4.16962 36.6457 4.00258 36.0271 4.00146 35.397V21.4955C4.00258 20.8656 4.16962 20.2468 4.48578 19.7019L4.7369 19.2535C5.05126 18.7099 5.50277 18.2583 6.04632 17.944L18.0822 10.9843C18.6273 10.6682 19.2459 10.5011 19.876 10.5H20.3962C21.0263 10.5011 21.6449 10.6682 22.1899 10.9843L34.2259 17.9261C34.7725 18.2425 35.2294 18.6932 35.5532 19.2355ZM20.3962 14.0874H19.876L9.38269 20.1502L20.145 26.3565L30.9075 20.1502L20.3962 14.0874ZM32.4321 35.8276L21.9388 41.8905V29.4778L32.7011 23.2536V35.3792L32.4321 35.8276ZM83.0647 37.0475H79.3452V17.4169H83.0647V37.0475ZM49.5015 37.4683H53.6601V30.3392H55.4681L59.885 37.4683H64.3277L59.446 29.6161C61.6157 28.9703 63.2429 27.498 63.2429 24.7084V24.605C63.2429 20.7823 60.4792 19 56.1139 19H49.5015V37.4683ZM53.6601 27.498V22.2029H56.0106C58.0253 22.2029 59.1619 22.8487 59.1619 24.7342V24.8375C59.1619 26.6198 58.1028 27.498 56.0106 27.498H53.6601ZM71.082 37.3309C74.7757 37.3309 77.1003 35.7037 77.5394 32.7849H74.0008C73.7683 33.9214 72.9159 34.6705 71.1854 34.6705C69.1448 34.6705 67.9308 33.379 67.8275 31.1318H77.5653V30.0986C77.5653 25.2684 74.4657 23.2279 70.9787 23.2279C67.0526 23.2279 64.0305 25.9917 64.0305 30.2536V30.4602C64.0305 34.7738 67.0009 37.3309 71.082 37.3309ZM67.8791 28.833C68.1632 26.9215 69.2998 25.8109 70.9787 25.8109C72.761 25.8109 73.7942 26.7924 73.9233 28.833H67.8791ZM90.1999 37.332C92.4215 37.332 93.79 36.2988 94.4874 34.9299V37.0479H98.207V23.5389H94.4874V31.4687C94.4874 33.4576 93.2475 34.4391 91.6726 34.4391C90.0713 34.4391 89.3214 33.5609 89.3214 31.727V23.5389H85.6024V32.2436C85.6024 35.7822 87.5653 37.332 90.1999 37.332ZM104.492 37.0468H100.746V23.5378H104.492V25.6042C105.163 24.3385 106.61 23.2279 108.625 23.2279C110.407 23.2279 111.75 23.977 112.396 25.5784C113.481 23.9511 115.237 23.2279 116.942 23.2279C119.448 23.2279 121.385 24.8035 121.385 28.3939V37.0468H117.665V28.8071C117.665 27.0765 116.89 26.3016 115.547 26.3016C114.1 26.3016 112.938 27.2315 112.938 29.0654V37.0468H109.219V28.8071C109.219 27.0765 108.418 26.3016 107.1 26.3016C105.654 26.3016 104.492 27.2315 104.492 29.0654V37.0468ZM130.033 37.3309C133.727 37.3309 136.052 35.7037 136.49 32.7849H132.952C132.719 33.9214 131.867 34.6705 130.136 34.6705C128.096 34.6705 126.882 33.379 126.779 31.1318H136.517V30.0986C136.517 25.2684 133.417 23.2279 129.93 23.2279C126.004 23.2279 122.981 25.9917 122.981 30.2536V30.4602C122.981 34.7738 125.952 37.3309 130.033 37.3309ZM126.83 28.833C127.115 26.9215 128.251 25.8109 129.93 25.8109C131.712 25.8109 132.745 26.7924 132.875 28.833H126.83Z" fill="black"/>
</svg>
