<svg width="140" height="56" viewBox="0 0 140 56" fill="none" xmlns="http://www.w3.org/2000/svg">
<path fill-rule="evenodd" clip-rule="evenodd" d="M38.5712 16.7499L27.0617 39.2499H16.251L21.0677 29.9249H20.8516C16.8779 35.0834 10.9489 38.4793 2.50098 39.2499V30.054C2.50098 30.054 7.90529 29.7348 11.0823 26.3946H2.50098V16.7501H12.1455V24.6825L12.362 24.6816L16.3031 16.7501H23.597V24.6322L23.8134 24.6319L27.9024 16.7499H38.5712Z" fill="black"/>
<path d="M101.334 36.7664H104.44V18.9374H101.334V36.7664Z" fill="black"/>
<path fill-rule="evenodd" clip-rule="evenodd" d="M84.2102 36.5843C84.8852 36.8649 85.5717 37.0053 86.2695 37.0053C87.4224 37.0053 88.454 36.7247 89.3643 36.1633C90.2744 35.6021 90.9799 34.8284 91.4805 33.8423C91.9812 32.8487 92.2314 31.7222 92.2314 30.4631C92.2314 29.2039 91.9735 28.0776 91.4578 27.0839C90.9419 26.0903 90.2252 25.3204 89.3073 24.7742C88.3895 24.2205 87.3465 23.9475 86.1784 23.955C85.4352 23.955 84.7222 24.0992 84.0394 24.3874C83.3568 24.6756 82.7879 25.0852 82.3328 25.6162C82.2977 25.6566 82.2635 25.6974 82.2304 25.7387V18.9488H79.1129V36.7664H82.2077L82.2014 35.1019C82.2814 35.2001 82.367 35.2959 82.4579 35.3897C82.9509 35.8979 83.535 36.2961 84.2102 36.5843ZM87.3959 33.7058C86.8877 34.0168 86.3074 34.1723 85.655 34.1723C85.0103 34.1723 84.4187 34.0129 83.8802 33.6944C83.3415 33.3682 82.913 32.9246 82.5944 32.3632C82.2834 31.8019 82.1279 31.1647 82.1279 30.4517C82.1204 29.7387 82.272 29.1016 82.583 28.5403C82.9017 27.9714 83.3302 27.5314 83.8688 27.2205C84.4073 26.9019 85.0028 26.7464 85.655 26.754C86.3074 26.7464 86.8877 26.8981 87.3959 27.2091C87.9117 27.5125 88.306 27.9486 88.5792 28.5175C88.8598 29.0788 89.0002 29.7236 89.0002 30.4517C89.0002 31.1799 88.8598 31.8247 88.5792 32.3859C88.306 32.9473 87.9117 33.3872 87.3959 33.7058Z" fill="black"/>
<path d="M43.071 20.0183H46.6209L49.7964 31.6153L53.1745 20.0183H56.1328L59.7964 31.3825L62.8457 20.0183H66.0997L61.2983 36.7664H58.2377L54.5122 25.6644L51.0924 36.7664H47.9977L43.071 20.0183Z" fill="black"/>
<path fill-rule="evenodd" clip-rule="evenodd" d="M71.3423 37.0621C70.1058 37.0698 68.9908 36.7966 67.9971 36.243C67.011 35.6816 66.2336 34.9041 65.6646 33.9105C65.1034 32.9169 64.8228 31.7829 64.8228 30.5085C64.8228 29.2721 65.111 28.1534 65.6875 27.1521C66.2639 26.1509 67.0451 25.3696 68.0312 24.8083C69.0174 24.247 70.1171 23.9664 71.3308 23.9664C72.6961 23.9664 73.8908 24.2698 74.9148 24.8766C75.9464 25.4834 76.7163 26.3443 77.2245 27.4593C77.7403 28.5668 77.9261 29.8373 77.782 31.2709H68.0361C68.0634 31.842 68.2059 32.3616 68.4636 32.8296C68.7519 33.3454 69.1539 33.7474 69.6696 34.0356C70.1855 34.3239 70.7619 34.468 71.3991 34.468C71.8845 34.4604 72.3359 34.377 72.753 34.2178C73.1703 34.0509 73.5229 33.8271 73.8111 33.5464C74.107 33.2658 74.3156 32.9473 74.437 32.5908H77.691C77.4938 33.463 77.0994 34.2405 76.5078 34.9231C75.916 35.5983 75.1728 36.1254 74.2776 36.5046C73.3826 36.8839 72.4041 37.0698 71.3423 37.0621ZM68.475 28.142C68.2933 28.459 68.1673 28.8003 68.0971 29.166H74.5575C74.5106 28.704 74.368 28.283 74.1298 27.9031C73.8566 27.4555 73.485 27.1104 73.0148 26.8677C72.5445 26.6174 72.0135 26.4922 71.4219 26.4922C70.7923 26.4922 70.2196 26.6363 69.7038 26.9246C69.188 27.2128 68.7784 27.6186 68.475 28.142Z" fill="black"/>
<path d="M94.5187 24.2281C94.5187 23.2117 94.75 22.309 95.2127 21.5202C95.6754 20.7237 96.324 20.1055 97.1584 19.6656C98.0002 19.2181 98.9826 18.9867 100.105 18.9716V21.7363C99.5817 21.7439 99.1342 21.8539 98.7626 22.0663C98.3985 22.2711 98.1179 22.5707 97.9206 22.9651C97.7391 23.3283 97.6411 23.7492 97.6267 24.2281H100.037V26.8563H97.6249V36.7664H94.5187V26.8563H92.5162V24.2281H94.5187Z" fill="black"/>
<path fill-rule="evenodd" clip-rule="evenodd" d="M112.336 37.0393C111.069 37.0393 109.935 36.7625 108.934 36.2088C107.94 35.6475 107.159 34.8738 106.59 33.8877C106.029 32.8941 105.748 31.7677 105.748 30.5085C105.748 29.2418 106.029 28.1116 106.59 27.118C107.159 26.1167 107.94 25.3392 108.934 24.7855C109.935 24.2318 111.069 23.9549 112.336 23.9549C113.61 23.9549 114.748 24.2318 115.749 24.7855C116.758 25.3392 117.543 26.1129 118.104 27.1066C118.666 28.1002 118.95 29.2342 118.958 30.5085C118.95 31.7677 118.666 32.8941 118.104 33.8877C117.551 34.8738 116.769 35.6475 115.76 36.2088C114.752 36.7625 113.61 37.0393 112.336 37.0393ZM112.336 34.1836C113.003 34.1836 113.595 34.0318 114.111 33.7285C114.627 33.4175 115.025 32.9851 115.305 32.4313C115.586 31.8701 115.726 31.2291 115.726 30.5085C115.726 29.7803 115.586 29.1356 115.305 28.5743C115.025 28.013 114.627 27.5807 114.111 27.2772C113.595 26.9663 113.003 26.8108 112.336 26.8108C111.676 26.8108 111.088 26.9663 110.572 27.2772C110.064 27.5807 109.67 28.013 109.389 28.5743C109.108 29.1356 108.972 29.7803 108.979 30.5085C108.979 31.2291 109.12 31.8701 109.4 32.4313C109.689 32.9851 110.083 33.4175 110.584 33.7285C111.092 34.0318 111.676 34.1836 112.336 34.1836Z" fill="black"/>
<path d="M122.314 24.2281H118.855L122.599 36.7664H125.625L128.087 28.7581L130.745 36.7664H133.726L137.481 24.2281H134.352L132.222 32.0324L129.868 24.2281H126.842L124.5 32.2043L122.314 24.2281Z" fill="black"/>
</svg>
