<svg width="140" height="56" viewBox="0 0 140 56" fill="none" xmlns="http://www.w3.org/2000/svg">
<path fill-rule="evenodd" clip-rule="evenodd" d="M38.5683 16.7496L27.0588 39.2496H16.248L21.0648 29.9246H20.8487C16.8749 35.0831 10.9459 38.479 2.49805 39.2496V30.0538C2.49805 30.0538 7.90236 29.7345 11.0794 26.3943H2.49805V16.7498H12.1426V24.6823L12.359 24.6814L16.3002 16.7498H23.594V24.632L23.8104 24.6316L27.8994 16.7496H38.5683Z" fill="black"/>
<path d="M101.331 36.7661H104.437V18.9371H101.331V36.7661Z" fill="black"/>
<path fill-rule="evenodd" clip-rule="evenodd" d="M84.2072 36.5841C84.8822 36.8647 85.5687 37.0051 86.2666 37.0051C87.4195 37.0051 88.4511 36.7245 89.3614 36.1631C90.2715 35.6018 90.977 34.8282 91.4776 33.8421C91.9782 32.8485 92.2285 31.722 92.2285 30.4628C92.2285 29.2037 91.9706 28.0773 91.4549 27.0837C90.939 26.09 90.2222 25.3201 89.3044 24.774C88.3866 24.2203 87.3436 23.9472 86.1755 23.9548C85.4322 23.9548 84.7192 24.0989 84.0365 24.3872C83.3539 24.6754 82.785 25.085 82.3299 25.616C82.2947 25.6564 82.2606 25.6972 82.2275 25.7384V18.9486H79.11V36.7662H82.2047L82.1985 35.1017C82.2785 35.1998 82.3641 35.2957 82.455 35.3895C82.948 35.8977 83.5321 36.2958 84.2072 36.5841ZM87.393 33.7056C86.8847 34.0166 86.3045 34.1721 85.6521 34.1721C85.0074 34.1721 84.4157 34.0127 83.8772 33.6942C83.3386 33.368 82.9101 32.9243 82.5915 32.363C82.2805 31.8017 82.125 31.1645 82.125 30.4515C82.1175 29.7385 82.2691 29.1013 82.5801 28.54C82.8987 27.9712 83.3272 27.5312 83.8659 27.2202C84.4044 26.9016 84.9999 26.7461 85.6521 26.7537C86.3045 26.7461 86.8847 26.8978 87.393 27.2088C87.9087 27.5122 88.3031 27.9484 88.5762 28.5173C88.8569 29.0786 88.9972 29.7233 88.9972 30.4515C88.9972 31.1797 88.8569 31.8245 88.5762 32.3857C88.3031 32.9471 87.9087 33.387 87.393 33.7056Z" fill="black"/>
<path d="M43.0681 20.0181H46.618L49.7935 31.6151L53.1716 20.0181H56.1299L59.7935 31.3823L62.8427 20.0181H66.0967L61.2954 36.7662H58.2347L54.5092 25.6642L51.0895 36.7662H47.9947L43.0681 20.0181Z" fill="black"/>
<path fill-rule="evenodd" clip-rule="evenodd" d="M71.3393 37.0619C70.1028 37.0695 68.9878 36.7964 67.9942 36.2428C67.0081 35.6814 66.2307 34.9039 65.6617 33.9103C65.1004 32.9167 64.8198 31.7826 64.8198 30.5083C64.8198 29.2719 65.1081 28.1531 65.6846 27.1519C66.2609 26.1507 67.0422 25.3694 68.0283 24.8081C69.0144 24.2468 70.1142 23.9661 71.3278 23.9661C72.6932 23.9661 73.8878 24.2695 74.9118 24.8763C75.9435 25.4832 76.7133 26.3441 77.2216 27.4591C77.7373 28.5665 77.9232 29.837 77.7791 31.2707H68.0332C68.0605 31.8418 68.203 32.3614 68.4607 32.8294C68.749 33.3452 69.1509 33.7472 69.6667 34.0354C70.1826 34.3237 70.759 34.4678 71.3962 34.4678C71.8816 34.4602 72.333 34.3768 72.7501 34.2175C73.1673 34.0507 73.5199 33.8269 73.8082 33.5462C74.1041 33.2655 74.3127 32.947 74.4341 32.5905H77.6881C77.4908 33.4628 77.0964 34.2403 76.5048 34.9229C75.9131 35.598 75.1698 36.1252 74.2747 36.5044C73.3797 36.8837 72.4012 37.0695 71.3393 37.0619ZM68.4721 28.1418C68.2903 28.4587 68.1643 28.8 68.0942 29.1658H74.5546C74.5077 28.7038 74.3651 28.2828 74.1268 27.9028C73.8537 27.4553 73.4821 27.1102 73.0118 26.8675C72.5416 26.6171 72.0106 26.492 71.419 26.492C70.7893 26.492 70.2167 26.6361 69.7008 26.9243C69.1851 27.2126 68.7755 27.6184 68.4721 28.1418Z" fill="black"/>
<path d="M94.5158 24.2278C94.5158 23.2114 94.7471 22.3088 95.2098 21.5199C95.6724 20.7235 96.3211 20.1053 97.1554 19.6654C97.9973 19.2178 98.9797 18.9865 100.102 18.9713V21.7361C99.5788 21.7437 99.1313 21.8537 98.7597 22.0661C98.3956 22.2709 98.1149 22.5705 97.9177 22.9649C97.7362 23.328 97.6382 23.749 97.6238 24.2278H100.034V26.8561H97.6219V36.7662H94.5158V26.8561H92.5133V24.2278H94.5158Z" fill="black"/>
<path fill-rule="evenodd" clip-rule="evenodd" d="M112.333 37.0391C111.066 37.0391 109.932 36.7622 108.931 36.2086C107.937 35.6472 107.156 34.8736 106.587 33.8875C106.026 32.8938 105.745 31.7675 105.745 30.5082C105.745 29.2416 106.026 28.1114 106.587 27.1177C107.156 26.1165 107.937 25.339 108.931 24.7853C109.932 24.2315 111.066 23.9547 112.333 23.9547C113.607 23.9547 114.745 24.2315 115.746 24.7853C116.755 25.339 117.54 26.1127 118.101 27.1063C118.663 28.1 118.947 29.234 118.955 30.5082C118.947 31.7675 118.663 32.8938 118.101 33.8875C117.548 34.8736 116.766 35.6472 115.757 36.2086C114.749 36.7622 113.607 37.0391 112.333 37.0391ZM112.333 34.1833C113 34.1833 113.592 34.0316 114.108 33.7282C114.624 33.4172 115.022 32.9848 115.302 32.4311C115.583 31.8698 115.723 31.2288 115.723 30.5082C115.723 29.7801 115.583 29.1353 115.302 28.5741C115.022 28.0128 114.624 27.5804 114.108 27.277C113.592 26.966 113 26.8105 112.333 26.8105C111.673 26.8105 111.085 26.966 110.569 27.277C110.061 27.5804 109.667 28.0128 109.386 28.5741C109.105 29.1353 108.969 29.7801 108.976 30.5082C108.976 31.2288 109.117 31.8698 109.397 32.4311C109.686 32.9848 110.08 33.4172 110.581 33.7282C111.089 34.0316 111.673 34.1833 112.333 34.1833Z" fill="black"/>
<path d="M122.311 24.2278H118.852L122.596 36.7662H125.622L128.084 28.7579L130.742 36.7662H133.723L137.478 24.2278H134.349L132.219 32.0322L129.865 24.2278H126.84L124.497 32.204L122.311 24.2278Z" fill="black"/>
</svg>
