<svg width="140" height="56" viewBox="0 0 140 56" fill="none" xmlns="http://www.w3.org/2000/svg">
<path fill-rule="evenodd" clip-rule="evenodd" d="M35.5503 19.2355L35.8014 19.684C36.1176 20.2289 36.2847 20.8476 36.2857 21.4776V35.3791C36.2805 36.0086 36.1138 36.6262 35.8014 37.1728L35.5323 37.6213C35.2251 38.1703 34.7719 38.6234 34.223 38.9307L22.187 45.8903C21.6419 46.2065 21.0233 46.3735 20.3932 46.3747H19.891C19.26 46.3806 18.6396 46.213 18.0973 45.8903L6.04339 38.9487C5.50614 38.6261 5.05646 38.1765 4.73397 37.6392L4.48285 37.1908C4.16669 36.6457 3.99966 36.0271 3.99854 35.397V21.4955C3.99966 20.8656 4.16669 20.2468 4.48285 19.7019L4.73397 19.2535C5.04833 18.7099 5.49984 18.2583 6.04339 17.944L18.0793 10.9843C18.6244 10.6682 19.243 10.5011 19.8731 10.5H20.3932C21.0233 10.5011 21.6419 10.6682 22.187 10.9843L34.223 17.9261C34.7696 18.2425 35.2264 18.6932 35.5503 19.2355ZM20.3932 14.0874H19.8731L9.37976 20.1502L20.1421 26.3565L30.9046 20.1502L20.3932 14.0874ZM32.4292 35.8276L21.9359 41.8905V29.4778L32.6982 23.2536V35.3792L32.4292 35.8276ZM83.0618 37.0475H79.3423V17.4169H83.0618V37.0475ZM49.4985 37.4683H53.6571V30.3392H55.4652L59.8821 37.4683H64.3248L59.443 29.6161C61.6128 28.9703 63.24 27.498 63.24 24.7084V24.605C63.24 20.7823 60.4762 19 56.111 19H49.4985V37.4683ZM53.6571 27.498V22.2029H56.0076C58.0224 22.2029 59.1589 22.8487 59.1589 24.7342V24.8375C59.1589 26.6198 58.0999 27.498 56.0076 27.498H53.6571ZM71.0791 37.3309C74.7727 37.3309 77.0974 35.7037 77.5365 32.7849H73.9978C73.7654 33.9214 72.913 34.6705 71.1824 34.6705C69.1419 34.6705 67.9279 33.379 67.8246 31.1318H77.5624V30.0986C77.5624 25.2684 74.4628 23.2279 70.9758 23.2279C67.0497 23.2279 64.0275 25.9917 64.0275 30.2536V30.4602C64.0275 34.7738 66.998 37.3309 71.0791 37.3309ZM67.8762 28.833C68.1603 26.9215 69.2968 25.8109 70.9758 25.8109C72.7581 25.8109 73.7913 26.7924 73.9204 28.833H67.8762ZM90.197 37.332C92.4186 37.332 93.7871 36.2988 94.4845 34.9299V37.0479H98.2041V23.5389H94.4845V31.4687C94.4845 33.4576 93.2446 34.4391 91.6696 34.4391C90.0684 34.4391 89.3185 33.5609 89.3185 31.727V23.5389H85.5994V32.2436C85.5994 35.7822 87.5624 37.332 90.197 37.332ZM104.489 37.0468H100.743V23.5378H104.489V25.6042C105.16 24.3385 106.607 23.2279 108.622 23.2279C110.404 23.2279 111.747 23.977 112.393 25.5784C113.478 23.9511 115.234 23.2279 116.939 23.2279C119.445 23.2279 121.382 24.8035 121.382 28.3939V37.0468H117.662V28.8071C117.662 27.0765 116.887 26.3016 115.544 26.3016C114.098 26.3016 112.936 27.2315 112.936 29.0654V37.0468H109.216V28.8071C109.216 27.0765 108.415 26.3016 107.098 26.3016C105.651 26.3016 104.489 27.2315 104.489 29.0654V37.0468ZM130.03 37.3309C133.724 37.3309 136.049 35.7037 136.487 32.7849H132.949C132.716 33.9214 131.864 34.6705 130.133 34.6705C128.093 34.6705 126.879 33.379 126.776 31.1318H136.514V30.0986C136.514 25.2684 133.414 23.2279 129.927 23.2279C126.001 23.2279 122.978 25.9917 122.978 30.2536V30.4602C122.978 34.7738 125.949 37.3309 130.03 37.3309ZM126.827 28.833C127.112 26.9215 128.249 25.8109 129.927 25.8109C131.709 25.8109 132.742 26.7924 132.872 28.833H126.827Z" fill="black"/>
</svg>
