<svg width="140" height="56" viewBox="0 0 140 56" fill="none" xmlns="http://www.w3.org/2000/svg">
<path fill-rule="evenodd" clip-rule="evenodd" d="M38.5702 16.7499L27.0607 39.2499H16.25L21.0667 29.9249H20.8506C16.8769 35.0834 10.9479 38.4793 2.5 39.2499V30.054C2.5 30.054 7.90431 29.7348 11.0814 26.3946H2.5V16.7501H12.1445V24.6825L12.361 24.6816L16.3021 16.7501H23.596V24.6322L23.8124 24.6319L27.9014 16.7499H38.5702Z" fill="black"/>
<path d="M101.333 36.7664H104.439V18.9374H101.333V36.7664Z" fill="black"/>
<path fill-rule="evenodd" clip-rule="evenodd" d="M84.2092 36.5843C84.8842 36.8649 85.5707 37.0053 86.2686 37.0053C87.4214 37.0053 88.4531 36.7247 89.3633 36.1633C90.2734 35.6021 90.9789 34.8284 91.4796 33.8423C91.9802 32.8487 92.2304 31.7222 92.2304 30.4631C92.2304 29.2039 91.9726 28.0776 91.4568 27.0839C90.9409 26.0903 90.2242 25.3204 89.3063 24.7742C88.3886 24.2205 87.3456 23.9475 86.1774 23.955C85.4342 23.955 84.7212 24.0992 84.0384 24.3874C83.3558 24.6756 82.7869 25.0852 82.3318 25.6162C82.2967 25.6566 82.2626 25.6974 82.2294 25.7387V18.9488H79.1119V36.7664H82.2067L82.2004 35.1019C82.2804 35.2001 82.3661 35.2959 82.4569 35.3897C82.9499 35.8979 83.5341 36.2961 84.2092 36.5843ZM87.3949 33.7058C86.8867 34.0168 86.3064 34.1723 85.6541 34.1723C85.0093 34.1723 84.4177 34.0129 83.8792 33.6944C83.3406 33.3682 82.9121 32.9246 82.5934 32.3632C82.2824 31.8019 82.1269 31.1647 82.1269 30.4517C82.1194 29.7387 82.2711 29.1016 82.5821 28.5403C82.9007 27.9714 83.3292 27.5314 83.8678 27.2205C84.4063 26.9019 85.0018 26.7464 85.6541 26.754C86.3064 26.7464 86.8867 26.8981 87.3949 27.2091C87.9107 27.5125 88.3051 27.9486 88.5782 28.5175C88.8588 29.0788 88.9992 29.7236 88.9992 30.4517C88.9992 31.1799 88.8588 31.8247 88.5782 32.3859C88.3051 32.9473 87.9107 33.3872 87.3949 33.7058Z" fill="black"/>
<path d="M43.0701 20.0183H46.6199L49.7954 31.6153L53.1736 20.0183H56.1318L59.7954 31.3825L62.8447 20.0183H66.0987L61.2973 36.7664H58.2367L54.5112 25.6644L51.0914 36.7664H47.9967L43.0701 20.0183Z" fill="black"/>
<path fill-rule="evenodd" clip-rule="evenodd" d="M71.3413 37.0621C70.1048 37.0698 68.9898 36.7966 67.9962 36.243C67.01 35.6816 66.2327 34.9041 65.6637 33.9105C65.1024 32.9169 64.8218 31.7829 64.8218 30.5085C64.8218 29.2721 65.11 28.1534 65.6865 27.1521C66.2629 26.1509 67.0441 25.3696 68.0303 24.8083C69.0164 24.247 70.1162 23.9664 71.3298 23.9664C72.6952 23.9664 73.8898 24.2698 74.9138 24.8766C75.9454 25.4834 76.7153 26.3443 77.2235 27.4593C77.7393 28.5668 77.9252 29.8373 77.781 31.2709H68.0352C68.0624 31.842 68.2049 32.3616 68.4627 32.8296C68.7509 33.3454 69.1529 33.7474 69.6686 34.0356C70.1845 34.3239 70.7609 34.468 71.3982 34.468C71.8835 34.4604 72.3349 34.377 72.752 34.2178C73.1693 34.0509 73.5219 33.8271 73.8102 33.5464C74.106 33.2658 74.3147 32.9473 74.436 32.5908H77.69C77.4928 33.463 77.0984 34.2405 76.5068 34.9231C75.915 35.5983 75.1718 36.1254 74.2766 36.5046C73.3816 36.8839 72.4032 37.0698 71.3413 37.0621ZM68.474 28.142C68.2923 28.459 68.1663 28.8003 68.0962 29.166H74.5565C74.5097 28.704 74.367 28.283 74.1288 27.9031C73.8557 27.4555 73.484 27.1104 73.0138 26.8677C72.5435 26.6174 72.0125 26.4922 71.4209 26.4922C70.7913 26.4922 70.2186 26.6363 69.7028 26.9246C69.187 27.2128 68.7774 27.6186 68.474 28.142Z" fill="black"/>
<path d="M94.5178 24.2281C94.5178 23.2117 94.749 22.309 95.2118 21.5202C95.6744 20.7237 96.323 20.1055 97.1574 19.6656C97.9993 19.2181 98.9816 18.9867 100.104 18.9716V21.7363C99.5808 21.7439 99.1333 21.8539 98.7616 22.0663C98.3975 22.2711 98.1169 22.5707 97.9196 22.9651C97.7381 23.3283 97.6401 23.7492 97.6258 24.2281H100.036V26.8563H97.6239V36.7664H94.5178V26.8563H92.5153V24.2281H94.5178Z" fill="black"/>
<path fill-rule="evenodd" clip-rule="evenodd" d="M112.335 37.0393C111.068 37.0393 109.934 36.7625 108.933 36.2088C107.939 35.6475 107.158 34.8738 106.589 33.8877C106.028 32.8941 105.747 31.7677 105.747 30.5085C105.747 29.2418 106.028 28.1116 106.589 27.118C107.158 26.1167 107.939 25.3392 108.933 24.7855C109.934 24.2318 111.068 23.9549 112.335 23.9549C113.609 23.9549 114.747 24.2318 115.748 24.7855C116.757 25.3392 117.542 26.1129 118.103 27.1066C118.665 28.1002 118.949 29.2342 118.957 30.5085C118.949 31.7677 118.665 32.8941 118.103 33.8877C117.55 34.8738 116.768 35.6475 115.759 36.2088C114.751 36.7625 113.609 37.0393 112.335 37.0393ZM112.335 34.1836C113.002 34.1836 113.594 34.0318 114.11 33.7285C114.626 33.4175 115.024 32.9851 115.304 32.4313C115.585 31.8701 115.725 31.2291 115.725 30.5085C115.725 29.7803 115.585 29.1356 115.304 28.5743C115.024 28.013 114.626 27.5807 114.11 27.2772C113.594 26.9663 113.002 26.8108 112.335 26.8108C111.675 26.8108 111.087 26.9663 110.571 27.2772C110.063 27.5807 109.669 28.013 109.388 28.5743C109.107 29.1356 108.971 29.7803 108.978 30.5085C108.978 31.2291 109.119 31.8701 109.399 32.4313C109.688 32.9851 110.082 33.4175 110.583 33.7285C111.091 34.0318 111.675 34.1836 112.335 34.1836Z" fill="black"/>
<path d="M122.313 24.2281H118.854L122.598 36.7664H125.624L128.086 28.7581L130.744 36.7664H133.725L137.48 24.2281H134.351L132.221 32.0324L129.867 24.2281H126.841L124.499 32.2043L122.313 24.2281Z" fill="black"/>
</svg>
