<svg width="140" height="56" viewBox="0 0 140 56" fill="none" xmlns="http://www.w3.org/2000/svg">
<path fill-rule="evenodd" clip-rule="evenodd" d="M38.5685 16.7496L27.059 39.2496H16.2483L21.065 29.9246H20.8489C16.8752 35.0831 10.9462 38.479 2.49829 39.2496V30.0538C2.49829 30.0538 7.9026 29.7345 11.0796 26.3943H2.49829V16.7498H12.1428V24.6823L12.3593 24.6814L16.3004 16.7498H23.5943V24.632L23.8107 24.6316L27.8997 16.7496H38.5685Z" fill="black"/>
<path d="M101.331 36.7661H104.437V18.9371H101.331V36.7661Z" fill="black"/>
<path fill-rule="evenodd" clip-rule="evenodd" d="M84.2075 36.5841C84.8825 36.8647 85.569 37.0051 86.2669 37.0051C87.4197 37.0051 88.4514 36.7245 89.3616 36.1631C90.2717 35.6018 90.9772 34.8282 91.4779 33.8421C91.9785 32.8485 92.2287 31.722 92.2287 30.4628C92.2287 29.2037 91.9709 28.0773 91.4551 27.0837C90.9392 26.09 90.2225 25.3201 89.3046 24.774C88.3869 24.2203 87.3439 23.9472 86.1757 23.9548C85.4325 23.9548 84.7195 24.0989 84.0367 24.3872C83.3541 24.6754 82.7852 25.085 82.3301 25.616C82.295 25.6564 82.2609 25.6972 82.2277 25.7384V18.9486H79.1102V36.7662H82.205L82.1987 35.1017C82.2787 35.1998 82.3644 35.2957 82.4552 35.3895C82.9482 35.8977 83.5324 36.2958 84.2075 36.5841ZM87.3932 33.7056C86.885 34.0166 86.3047 34.1721 85.6524 34.1721C85.0076 34.1721 84.416 34.0127 83.8775 33.6942C83.3389 33.368 82.9104 32.9243 82.5917 32.363C82.2807 31.8017 82.1252 31.1645 82.1252 30.4515C82.1177 29.7385 82.2694 29.1013 82.5804 28.54C82.899 27.9712 83.3275 27.5312 83.8661 27.2202C84.4046 26.9016 85.0001 26.7461 85.6524 26.7537C86.3047 26.7461 86.885 26.8978 87.3932 27.2088C87.909 27.5122 88.3034 27.9484 88.5765 28.5173C88.8571 29.0786 88.9975 29.7233 88.9975 30.4515C88.9975 31.1797 88.8571 31.8245 88.5765 32.3857C88.3034 32.9471 87.909 33.387 87.3932 33.7056Z" fill="black"/>
<path d="M43.0684 20.0181H46.6182L49.7937 31.6151L53.1719 20.0181H56.1301L59.7937 31.3823L62.843 20.0181H66.097L61.2956 36.7662H58.235L54.5095 25.6642L51.0897 36.7662H47.995L43.0684 20.0181Z" fill="black"/>
<path fill-rule="evenodd" clip-rule="evenodd" d="M71.3396 37.0619C70.1031 37.0695 68.9881 36.7964 67.9944 36.2428C67.0083 35.6814 66.2309 34.9039 65.6619 33.9103C65.1007 32.9167 64.8201 31.7826 64.8201 30.5083C64.8201 29.2719 65.1083 28.1531 65.6848 27.1519C66.2612 26.1507 67.0424 25.3694 68.0286 24.8081C69.0147 24.2468 70.1144 23.9661 71.3281 23.9661C72.6934 23.9661 73.8881 24.2695 74.9121 24.8763C75.9437 25.4832 76.7136 26.3441 77.2218 27.4591C77.7376 28.5665 77.9234 29.837 77.7793 31.2707H68.0334C68.0607 31.8418 68.2032 32.3614 68.4609 32.8294C68.7492 33.3452 69.1512 33.7472 69.6669 34.0354C70.1828 34.3237 70.7592 34.4678 71.3964 34.4678C71.8818 34.4602 72.3332 34.3768 72.7503 34.2175C73.1676 34.0507 73.5202 33.8269 73.8084 33.5462C74.1043 33.2655 74.3129 32.947 74.4343 32.5905H77.6883C77.4911 33.4628 77.0967 34.2403 76.5051 34.9229C75.9133 35.598 75.1701 36.1252 74.2749 36.5044C73.3799 36.8837 72.4014 37.0695 71.3396 37.0619ZM68.4723 28.1418C68.2906 28.4587 68.1646 28.8 68.0944 29.1658H74.5548C74.5079 28.7038 74.3653 28.2828 74.1271 27.9028C73.8539 27.4553 73.4823 27.1102 73.0121 26.8675C72.5418 26.6171 72.0108 26.492 71.4192 26.492C70.7896 26.492 70.2169 26.6361 69.7011 26.9243C69.1853 27.2126 68.7757 27.6184 68.4723 28.1418Z" fill="black"/>
<path d="M94.516 24.2278C94.516 23.2114 94.7473 22.3088 95.21 21.5199C95.6727 20.7235 96.3213 20.1053 97.1557 19.6654C97.9975 19.2178 98.9799 18.9865 100.102 18.9713V21.7361C99.579 21.7437 99.1316 21.8537 98.7599 22.0661C98.3958 22.2709 98.1152 22.5705 97.9179 22.9649C97.7364 23.328 97.6384 23.749 97.6241 24.2278H100.034V26.8561H97.6222V36.7662H94.516V26.8561H92.5135V24.2278H94.516Z" fill="black"/>
<path fill-rule="evenodd" clip-rule="evenodd" d="M112.333 37.0391C111.066 37.0391 109.932 36.7622 108.931 36.2086C107.937 35.6472 107.156 34.8736 106.587 33.8875C106.026 32.8938 105.745 31.7675 105.745 30.5082C105.745 29.2416 106.026 28.1114 106.587 27.1177C107.156 26.1165 107.937 25.339 108.931 24.7853C109.932 24.2315 111.066 23.9547 112.333 23.9547C113.607 23.9547 114.745 24.2315 115.746 24.7853C116.755 25.339 117.54 26.1127 118.102 27.1063C118.663 28.1 118.947 29.234 118.955 30.5082C118.947 31.7675 118.663 32.8938 118.102 33.8875C117.548 34.8736 116.767 35.6472 115.758 36.2086C114.749 36.7622 113.607 37.0391 112.333 37.0391ZM112.333 34.1833C113.001 34.1833 113.592 34.0316 114.108 33.7282C114.624 33.4172 115.022 32.9848 115.303 32.4311C115.583 31.8698 115.724 31.2288 115.724 30.5082C115.724 29.7801 115.583 29.1353 115.303 28.5741C115.022 28.0128 114.624 27.5804 114.108 27.277C113.592 26.966 113.001 26.8105 112.333 26.8105C111.673 26.8105 111.085 26.966 110.569 27.277C110.061 27.5804 109.667 28.0128 109.386 28.5741C109.106 29.1353 108.969 29.7801 108.977 30.5082C108.977 31.2288 109.117 31.8698 109.398 32.4311C109.686 32.9848 110.08 33.4172 110.581 33.7282C111.089 34.0316 111.673 34.1833 112.333 34.1833Z" fill="black"/>
<path d="M122.311 24.2278H118.853L122.596 36.7662H125.622L128.084 28.7579L130.742 36.7662H133.723L137.478 24.2278H134.349L132.219 32.0322L129.866 24.2278H126.84L124.498 32.204L122.311 24.2278Z" fill="black"/>
</svg>
