<svg width="140" height="56" viewBox="0 0 140 56" fill="none" xmlns="http://www.w3.org/2000/svg">
<path fill-rule="evenodd" clip-rule="evenodd" d="M35.5531 19.2355L35.8042 19.684C36.1205 20.2289 36.2875 20.8476 36.2885 21.4776V35.3791C36.2834 36.0086 36.1166 36.6262 35.8042 37.1728L35.5352 37.6213C35.228 38.1703 34.7747 38.6234 34.2258 38.9307L22.1898 45.8903C21.6448 46.2065 21.0262 46.3735 20.3961 46.3747H19.8938C19.2629 46.3806 18.6424 46.213 18.1001 45.8903L6.04623 38.9487C5.50898 38.6261 5.0593 38.1765 4.73681 37.6392L4.48568 37.1908C4.16953 36.6457 4.00249 36.0271 4.00137 35.397V21.4955C4.00249 20.8656 4.16953 20.2468 4.48568 19.7019L4.73681 19.2535C5.05117 18.7099 5.50268 18.2583 6.04623 17.944L18.0822 10.9843C18.6272 10.6682 19.2458 10.5011 19.8759 10.5H20.3961C21.0262 10.5011 21.6448 10.6682 22.1898 10.9843L34.2258 17.9261C34.7724 18.2425 35.2293 18.6932 35.5531 19.2355ZM20.3961 14.0874H19.8759L9.3826 20.1502L20.145 26.3565L30.9074 20.1502L20.3961 14.0874ZM32.432 35.8276L21.9387 41.8905V29.4778L32.7011 23.2536V35.3792L32.432 35.8276ZM83.0646 37.0475H79.3451V17.4169H83.0646V37.0475ZM49.5014 37.4683H53.66V30.3392H55.4681L59.8849 37.4683H64.3277L59.4459 29.6161C61.6156 28.9703 63.2428 27.498 63.2428 24.7084V24.605C63.2428 20.7823 60.4791 19 56.1138 19H49.5014V37.4683ZM53.66 27.498V22.2029H56.0105C58.0252 22.2029 59.1618 22.8487 59.1618 24.7342V24.8375C59.1618 26.6198 58.1028 27.498 56.0105 27.498H53.66ZM71.082 37.3309C74.7756 37.3309 77.1003 35.7037 77.5393 32.7849H74.0007C73.7682 33.9214 72.9159 34.6705 71.1853 34.6705C69.1447 34.6705 67.9307 33.379 67.8274 31.1318H77.5652V30.0986C77.5652 25.2684 74.4656 23.2279 70.9786 23.2279C67.0525 23.2279 64.0304 25.9917 64.0304 30.2536V30.4602C64.0304 34.7738 67.0008 37.3309 71.082 37.3309ZM67.879 28.833C68.1631 26.9215 69.2997 25.8109 70.9786 25.8109C72.7609 25.8109 73.7941 26.7924 73.9232 28.833H67.879ZM90.1998 37.332C92.4215 37.332 93.79 36.2988 94.4873 34.9299V37.0479H98.2069V23.5389H94.4873V31.4687C94.4873 33.4576 93.2475 34.4391 91.6725 34.4391C90.0712 34.4391 89.3214 33.5609 89.3214 31.727V23.5389H85.6023V32.2436C85.6023 35.7822 87.5652 37.332 90.1998 37.332ZM104.492 37.0468H100.746V23.5378H104.492V25.6042C105.163 24.3385 106.61 23.2279 108.625 23.2279C110.407 23.2279 111.75 23.977 112.396 25.5784C113.481 23.9511 115.237 23.2279 116.941 23.2279C119.447 23.2279 121.385 24.8035 121.385 28.3939V37.0468H117.665V28.8071C117.665 27.0765 116.89 26.3016 115.547 26.3016C114.1 26.3016 112.938 27.2315 112.938 29.0654V37.0468H109.219V28.8071C109.219 27.0765 108.418 26.3016 107.1 26.3016C105.654 26.3016 104.492 27.2315 104.492 29.0654V37.0468ZM130.033 37.3309C133.727 37.3309 136.052 35.7037 136.49 32.7849H132.952C132.719 33.9214 131.867 34.6705 130.136 34.6705C128.096 34.6705 126.882 33.379 126.779 31.1318H136.517V30.0986C136.517 25.2684 133.416 23.2279 129.93 23.2279C126.003 23.2279 122.981 25.9917 122.981 30.2536V30.4602C122.981 34.7738 125.952 37.3309 130.033 37.3309ZM126.83 28.833C127.115 26.9215 128.251 25.8109 129.93 25.8109C131.712 25.8109 132.745 26.7924 132.875 28.833H126.83Z" fill="black"/>
</svg>
