<svg width="140" height="56" viewBox="0 0 140 56" fill="none" xmlns="http://www.w3.org/2000/svg">
<path fill-rule="evenodd" clip-rule="evenodd" d="M38.5716 16.7499L27.0621 39.2499H16.2513L21.0681 29.9249H20.852C16.8782 35.0834 10.9492 38.4793 2.50134 39.2499V30.054C2.50134 30.054 7.90566 29.7348 11.0827 26.3946H2.50134V16.7501H12.1459V24.6825L12.3623 24.6816L16.3035 16.7501H23.5973V24.6322L23.8137 24.6319L27.9027 16.7499H38.5716Z" fill="black"/>
<path d="M101.334 36.7664H104.44V18.9374H101.334V36.7664Z" fill="black"/>
<path fill-rule="evenodd" clip-rule="evenodd" d="M84.2105 36.5843C84.8855 36.8649 85.572 37.0053 86.2699 37.0053C87.4228 37.0053 88.4544 36.7247 89.3647 36.1633C90.2748 35.6021 90.9803 34.8284 91.4809 33.8423C91.9815 32.8487 92.2318 31.7222 92.2318 30.4631C92.2318 29.2039 91.9739 28.0776 91.4582 27.0839C90.9423 26.0903 90.2255 25.3204 89.3077 24.7742C88.3899 24.2205 87.3469 23.9475 86.1788 23.955C85.4355 23.955 84.7225 24.0992 84.0398 24.3874C83.3572 24.6756 82.7883 25.0852 82.3332 25.6162C82.298 25.6566 82.2639 25.6974 82.2308 25.7387V18.9488H79.1133V36.7664H82.208L82.2018 35.1019C82.2818 35.2001 82.3674 35.2959 82.4583 35.3897C82.9513 35.8979 83.5354 36.2961 84.2105 36.5843ZM87.3963 33.7058C86.888 34.0168 86.3078 34.1723 85.6554 34.1723C85.0107 34.1723 84.419 34.0129 83.8805 33.6944C83.3419 33.3682 82.9134 32.9246 82.5948 32.3632C82.2838 31.8019 82.1283 31.1647 82.1283 30.4517C82.1208 29.7387 82.2724 29.1016 82.5834 28.5403C82.902 27.9714 83.3305 27.5314 83.8692 27.2205C84.4077 26.9019 85.0032 26.7464 85.6554 26.754C86.3078 26.7464 86.888 26.8981 87.3963 27.2091C87.912 27.5125 88.3064 27.9486 88.5795 28.5175C88.8602 29.0788 89.0005 29.7236 89.0005 30.4517C89.0005 31.1799 88.8602 31.8247 88.5795 32.3859C88.3064 32.9473 87.912 33.3872 87.3963 33.7058Z" fill="black"/>
<path d="M43.0714 20.0183H46.6213L49.7968 31.6153L53.1749 20.0183H56.1332L59.7968 31.3825L62.846 20.0183H66.1L61.2987 36.7664H58.238L54.5125 25.6644L51.0928 36.7664H47.998L43.0714 20.0183Z" fill="black"/>
<path fill-rule="evenodd" clip-rule="evenodd" d="M71.3426 37.0621C70.1061 37.0698 68.9911 36.7966 67.9975 36.243C67.0114 35.6816 66.234 34.9041 65.665 33.9105C65.1037 32.9169 64.8231 31.7829 64.8231 30.5085C64.8231 29.2721 65.1114 28.1534 65.6879 27.1521C66.2642 26.1509 67.0455 25.3696 68.0316 24.8083C69.0177 24.247 70.1175 23.9664 71.3311 23.9664C72.6965 23.9664 73.8911 24.2698 74.9151 24.8766C75.9467 25.4834 76.7166 26.3443 77.2249 27.4593C77.7406 28.5668 77.9265 29.8373 77.7824 31.2709H68.0365C68.0638 31.842 68.2062 32.3616 68.464 32.8296C68.7523 33.3454 69.1542 33.7474 69.67 34.0356C70.1859 34.3239 70.7622 34.468 71.3995 34.468C71.8849 34.4604 72.3363 34.377 72.7534 34.2178C73.1706 34.0509 73.5232 33.8271 73.8115 33.5464C74.1074 33.2658 74.316 32.9473 74.4374 32.5908H77.6914C77.4941 33.463 77.0997 34.2405 76.5081 34.9231C75.9164 35.5983 75.1731 36.1254 74.278 36.5046C73.383 36.8839 72.4045 37.0698 71.3426 37.0621ZM68.4754 28.142C68.2936 28.459 68.1676 28.8003 68.0975 29.166H74.5579C74.511 28.704 74.3684 28.283 74.1301 27.9031C73.857 27.4555 73.4854 27.1104 73.0151 26.8677C72.5449 26.6174 72.0139 26.4922 71.4222 26.4922C70.7926 26.4922 70.22 26.6363 69.7041 26.9246C69.1884 27.2128 68.7787 27.6186 68.4754 28.142Z" fill="black"/>
<path d="M94.5191 24.2281C94.5191 23.2117 94.7503 22.309 95.2131 21.5202C95.6757 20.7237 96.3243 20.1055 97.1587 19.6656C98.0006 19.2181 98.983 18.9867 100.105 18.9716V21.7363C99.5821 21.7439 99.1346 21.8539 98.763 22.0663C98.3988 22.2711 98.1182 22.5707 97.921 22.9651C97.7395 23.3283 97.6415 23.7492 97.6271 24.2281H100.037V26.8563H97.6252V36.7664H94.5191V26.8563H92.5166V24.2281H94.5191Z" fill="black"/>
<path fill-rule="evenodd" clip-rule="evenodd" d="M112.336 37.0393C111.069 37.0393 109.935 36.7625 108.934 36.2088C107.941 35.6475 107.159 34.8738 106.59 33.8877C106.029 32.8941 105.748 31.7677 105.748 30.5085C105.748 29.2418 106.029 28.1116 106.59 27.118C107.159 26.1167 107.941 25.3392 108.934 24.7855C109.935 24.2318 111.069 23.9549 112.336 23.9549C113.61 23.9549 114.748 24.2318 115.749 24.7855C116.758 25.3392 117.543 26.1129 118.105 27.1066C118.666 28.1002 118.95 29.2342 118.958 30.5085C118.95 31.7677 118.666 32.8941 118.105 33.8877C117.551 34.8738 116.77 35.6475 115.761 36.2088C114.752 36.7625 113.61 37.0393 112.336 37.0393ZM112.336 34.1836C113.004 34.1836 113.595 34.0318 114.111 33.7285C114.627 33.4175 115.025 32.9851 115.306 32.4313C115.586 31.8701 115.727 31.2291 115.727 30.5085C115.727 29.7803 115.586 29.1356 115.306 28.5743C115.025 28.013 114.627 27.5807 114.111 27.2772C113.595 26.9663 113.004 26.8108 112.336 26.8108C111.676 26.8108 111.088 26.9663 110.573 27.2772C110.064 27.5807 109.67 28.013 109.389 28.5743C109.109 29.1356 108.972 29.7803 108.98 30.5085C108.98 31.2291 109.12 31.8701 109.401 32.4313C109.689 32.9851 110.083 33.4175 110.584 33.7285C111.092 34.0318 111.676 34.1836 112.336 34.1836Z" fill="black"/>
<path d="M122.314 24.2281H118.856L122.599 36.7664H125.625L128.087 28.7581L130.745 36.7664H133.726L137.481 24.2281H134.352L132.222 32.0324L129.869 24.2281H126.843L124.501 32.2043L122.314 24.2281Z" fill="black"/>
</svg>
