<svg width="140" height="56" viewBox="0 0 140 56" fill="none" xmlns="http://www.w3.org/2000/svg">
<path fill-rule="evenodd" clip-rule="evenodd" d="M35.5517 19.2355L35.8029 19.684C36.1191 20.2289 36.2861 20.8476 36.2872 21.4776V35.3791C36.282 36.0086 36.1152 36.6262 35.8029 37.1728L35.5338 37.6213C35.2266 38.1703 34.7733 38.6234 34.2245 38.9307L22.1884 45.8903C21.6434 46.2065 21.0248 46.3735 20.3947 46.3747H19.8925C19.2615 46.3806 18.641 46.213 18.0987 45.8903L6.04486 38.9487C5.50761 38.6261 5.05792 38.1765 4.73543 37.6392L4.48431 37.1908C4.16816 36.6457 4.00112 36.0271 4 35.397V21.4955C4.00112 20.8656 4.16816 20.2468 4.48431 19.7019L4.73543 19.2535C5.04979 18.7099 5.50131 18.2583 6.04486 17.944L18.0808 10.9843C18.6258 10.6682 19.2444 10.5011 19.8745 10.5H20.3947C21.0248 10.5011 21.6434 10.6682 22.1884 10.9843L34.2245 17.9261C34.7711 18.2425 35.2279 18.6932 35.5517 19.2355ZM20.3947 14.0874H19.8745L9.38122 20.1502L20.1436 26.3565L30.906 20.1502L20.3947 14.0874ZM32.4306 35.8276L21.9373 41.8905V29.4778L32.6997 23.2536V35.3792L32.4306 35.8276ZM83.0633 37.0475H79.3438V17.4169H83.0633V37.0475ZM49.5 37.4683H53.6586V30.3392H55.4667L59.8836 37.4683H64.3263L59.4445 29.6161C61.6142 28.9703 63.2415 27.498 63.2415 24.7084V24.605C63.2415 20.7823 60.4777 19 56.1124 19H49.5V37.4683ZM53.6586 27.498V22.2029H56.0091C58.0239 22.2029 59.1604 22.8487 59.1604 24.7342V24.8375C59.1604 26.6198 58.1014 27.498 56.0091 27.498H53.6586ZM71.0806 37.3309C74.7742 37.3309 77.0989 35.7037 77.538 32.7849H73.9993C73.7668 33.9214 72.9145 34.6705 71.1839 34.6705C69.1433 34.6705 67.9294 33.379 67.826 31.1318H77.5639V30.0986C77.5639 25.2684 74.4643 23.2279 70.9772 23.2279C67.0511 23.2279 64.029 25.9917 64.029 30.2536V30.4602C64.029 34.7738 66.9994 37.3309 71.0806 37.3309ZM67.8777 28.833C68.1618 26.9215 69.2983 25.8109 70.9772 25.8109C72.7595 25.8109 73.7927 26.7924 73.9219 28.833H67.8777ZM90.1985 37.332C92.4201 37.332 93.7886 36.2988 94.486 34.9299V37.0479H98.2056V23.5389H94.486V31.4687C94.486 33.4576 93.2461 34.4391 91.6711 34.4391C90.0698 34.4391 89.32 33.5609 89.32 31.727V23.5389H85.6009V32.2436C85.6009 35.7822 87.5639 37.332 90.1985 37.332ZM104.491 37.0468H100.745V23.5378H104.491V25.6042C105.162 24.3385 106.608 23.2279 108.623 23.2279C110.406 23.2279 111.749 23.977 112.395 25.5784C113.479 23.9511 115.236 23.2279 116.94 23.2279C119.446 23.2279 121.383 24.8035 121.383 28.3939V37.0468H117.664V28.8071C117.664 27.0765 116.888 26.3016 115.545 26.3016C114.099 26.3016 112.937 27.2315 112.937 29.0654V37.0468H109.217V28.8071C109.217 27.0765 108.417 26.3016 107.099 26.3016C105.653 26.3016 104.491 27.2315 104.491 29.0654V37.0468ZM130.031 37.3309C133.726 37.3309 136.051 35.7037 136.489 32.7849H132.95C132.718 33.9214 131.865 34.6705 130.135 34.6705C128.094 34.6705 126.881 33.379 126.777 31.1318H136.515V30.0986C136.515 25.2684 133.415 23.2279 129.928 23.2279C126.002 23.2279 122.98 25.9917 122.98 30.2536V30.4602C122.98 34.7738 125.95 37.3309 130.031 37.3309ZM126.829 28.833C127.113 26.9215 128.25 25.8109 129.928 25.8109C131.711 25.8109 132.744 26.7924 132.873 28.833H126.829Z" fill="black"/>
</svg>
