<svg class="svg-icon" style="width: 1em; height: 1em;vertical-align: middle;fill: currentColor;overflow: hidden;" viewBox="0 0 1024 1024" version="1.1" xmlns="http://www.w3.org/2000/svg"><path d="M718.996424 877.610932c-8.949836 0-17.939581-2.202155-26.049283-6.372128l-179.337481-88.083128-180.910303 88.281649c-17.496489 9.216919-41.679261 7.601118-58.582233-4.711302-17.055444-12.113899-25.851784-33.642215-22.312168-54.633295l37.299511-191.177134L146.828067 489.773789c-15.629979-15.2094-21.185508-37.768185-14.551414-57.82601 6.437619-20.207227 23.738657-34.919301 45.069475-38.107923l197.472514-35.752272 88.51087-177.786149c9.633405-19.273972 28.948309-31.242562 50.327222-31.242562 21.277606 0 41.040718 12.31242 50.278103 31.387871l88.465844 177.543625 198.013843 34.720779c20.834514 3.086291 38.135552 17.702174 44.670385 38.107923 6.585999 19.956517 1.034563 42.519396-14.155395 57.280588l-142.720515 132.812865 36.075637 190.834326c3.689019 21.184485-5.112438 42.717917-22.458501 55.175647C742.4373 873.738741 730.690768 877.610932 718.996424 877.610932L718.996424 877.610932 718.996424 877.610932zM718.996424 877.610932"  /></svg>